<svg xmlns="http://www.w3.org/2000/svg" width="994.241" height="259.24" viewBox="0 0 994.241 259.24">
  <g id="Group_1894" data-name="Group 1894" transform="translate(-342.356 -180.485)">
    <path id="Path_2430" data-name="Path 2430" d="M742.3,523.765c1.892-7.387.284-10.909,0-20.632-1.763-60.4,36.726-75,47.976-91.608s-6.133-47.486-.911-72.172,34.771-28.049,25.223-63.832c-.84-3.149-4.979-4.362-5.534-7.476H701.026c-21.763,6.209-49.02,4.446-60.346,22.158-16.116,25.2,11.3,60.769-.969,87.718s-47.4,38.977-64.006,59.849c-13.716,17.239-34.548,44-21.421,86Z" transform="translate(16.183 -87.56)" fill="rgba(104,70,123,0.48)" fill-rule="evenodd"/>
    <path id="Path_2431" data-name="Path 2431" d="M644.1,605.751H822.856a122.748,122.748,0,0,0-3.866-19.57c-20.333-72.471,21.79-101.716,30.382-125.186s-21.723-55.549-22.852-86.961c-.322-8.984,2.286-16.459,5.784-23.772H644.1c0,37.9,0,24.7,0,64.852,8.121,16.526,16.344,33.408,13.16,50.636-2.057,11.135-7.144,21.219-13.752,30.94,0,48.52.592,109.061.592,109.061Z" transform="translate(-301.151 -168.873)" fill="rgba(73,47,88,0.31)" fill-rule="evenodd"/>
    <path id="Path_2432" data-name="Path 2432" d="M697.523,894.914c7.829-5.7,497.222,3.219,505.536,0,57.735-22.35,121.594,21.047,167.7-69.2,52.578-102.9,106.9-103.058,230.154-137.461,34.758-9.7,62.21-24.737,88.316-50.725H819.544c-18.3,29.392-37.844,47.35-68.085,60.517-20.5,8.926-31.458,12.5-53.936,13.79,0,77.908,0,108.567,0,183.083Z" transform="translate(-352.635 -455.911)" fill="rgba(73,47,88,0.31)" fill-rule="evenodd"/>
  </g>
</svg>
